<?xml version="1.0" standalone="no"?>
<!DOCTYPE svg PUBLIC "-//W3C//DTD SVG 20010904//EN"
 "http://www.w3.org/TR/2001/REC-SVG-20010904/DTD/svg10.dtd">
<svg version="1.0" xmlns="http://www.w3.org/2000/svg"
 width="470.000000pt" height="337.000000pt" viewBox="0 0 470.000000 337.000000"
 preserveAspectRatio="xMidYMid meet">

<g transform="translate(0.000000,337.000000) scale(0.100000,-0.100000)"
fill="#000000" stroke="none">
<path d="M2380 3352 c0 -41 33 -140 71 -212 118 -228 344 -388 609 -430 85
-14 218 -7 305 15 69 19 203 73 211 87 4 5 -20 37 -52 70 -149 152 -369 296
-579 378 -146 58 -388 110 -507 110 -49 0 -58 -3 -58 -18z"/>
<path d="M1830 3296 c-285 -98 -509 -235 -696 -428 -84 -86 -207 -241 -227
-287 -6 -14 -16 -29 -21 -33 -16 -11 42 -29 134 -40 102 -13 253 -5 335 17 81
21 228 96 298 150 76 60 168 173 218 268 71 136 118 388 72 387 -10 -1 -61
-16 -113 -34z"/>
<path d="M2167 3184 c-21 -224 -126 -435 -307 -615 -138 -136 -284 -218 -484
-271 -65 -17 -110 -21 -226 -22 -80 0 -165 5 -190 12 -40 10 -43 9 -25 -4 283
-206 435 -499 435 -838 0 -241 -55 -416 -196 -623 l-43 -61 101 34 c149 51
260 68 392 60 358 -23 669 -209 851 -512 19 -32 36 -51 38 -43 60 214 131 341
274 485 144 146 348 257 543 294 30 6 117 11 194 11 l138 -1 -70 74 c-117 124
-191 247 -243 408 -43 134 -53 205 -46 363 9 207 52 344 161 515 23 36 45 70
49 77 5 7 -8 7 -41 -3 -248 -75 -539 -48 -769 71 -250 130 -439 347 -508 584
l-22 73 -6 -68z"/>
<path d="M3783 2495 c-39 -27 -146 -178 -184 -260 -69 -149 -93 -328 -64 -480
34 -180 105 -316 229 -440 80 -79 174 -143 181 -123 15 44 55 223 60 273 12
118 18 151 24 130 3 -11 140 -222 303 -468 164 -246 303 -457 309 -469 6 -11
14 -16 19 -12 21 24 40 151 40 265 l0 121 -191 230 c-105 126 -188 232 -186
234 2 3 86 -52 186 -121 100 -69 184 -125 187 -125 2 0 4 84 4 188 l0 187
-161 44 c-88 25 -162 48 -165 52 -6 10 0 11 171 40 72 11 133 23 136 25 6 3
-17 134 -24 140 -1 1 -33 4 -71 7 -37 3 -70 8 -73 10 -2 3 23 24 56 47 34 24
61 49 61 56 0 10 -36 186 -55 272 -5 20 -21 5 -123 -116 -64 -76 -151 -179
-193 -228 -41 -49 -111 -132 -155 -184 l-80 -96 -12 131 c-14 153 -32 245 -73
374 -28 87 -112 287 -128 303 -4 4 -16 1 -28 -7z"/>
<path d="M10 2050 l0 -151 70 -32 c38 -18 69 -35 70 -39 0 -8 -16 -13 -93 -28
l-57 -11 0 -74 0 -75 168 -2 167 -3 -167 -82 -168 -83 0 -220 c0 -121 3 -220
7 -220 4 0 100 91 212 203 112 111 201 195 198 187 -2 -8 -77 -142 -165 -298
l-160 -283 77 -164 76 -164 16 37 c8 20 100 241 205 489 104 249 192 453 197
453 4 0 7 -14 7 -30 0 -37 34 -191 61 -279 39 -127 139 -341 159 -341 4 0 25
19 47 42 117 128 194 300 212 473 25 249 -58 489 -230 663 -67 69 -198 158
-204 140 -31 -91 -64 -301 -66 -413 -1 -44 -4 -70 -7 -59 -6 19 -610 514 -626
514 -3 0 -6 -68 -6 -150z"/>
<path d="M3435 883 c-84 -12 -199 -48 -280 -88 -256 -128 -421 -374 -449 -672
-7 -69 -6 -73 13 -73 41 0 237 72 356 130 104 51 269 148 285 169 3 3 28 24
55 45 110 87 277 279 354 408 l22 37 -53 15 c-101 29 -219 40 -303 29z"/>
<path d="M1485 643 c-76 -12 -158 -38 -247 -80 -54 -25 -98 -49 -98 -53 0 -10
114 -111 200 -177 67 -52 160 -108 267 -162 192 -96 469 -161 690 -161 l81 0
-18 59 c-81 270 -282 464 -564 545 -84 25 -246 40 -311 29z"/>
</g>
</svg>
