<?xml version="1.0" standalone="no"?>
<!DOCTYPE svg PUBLIC "-//W3C//DTD SVG 20010904//EN"
 "http://www.w3.org/TR/2001/REC-SVG-20010904/DTD/svg10.dtd">
<svg version="1.0" xmlns="http://www.w3.org/2000/svg"
 width="896.000000pt" height="866.000000pt" viewBox="0 0 896.000000 866.000000"
 preserveAspectRatio="xMidYMid meet">

<g transform="translate(0.000000,866.000000) scale(0.100000,-0.100000)"
fill="#000000" stroke="none">
<path d="M4174 8468 c3 -13 10 -50 17 -82 49 -254 166 -465 373 -672 168 -168
365 -291 572 -359 174 -57 245 -68 449 -69 233 0 315 16 558 108 73 28 187 85
187 93 0 21 -227 240 -350 338 -159 126 -374 265 -545 352 -103 53 -340 143
-480 183 -210 61 -458 104 -713 124 -71 6 -72 6 -68 -16z"/>
<path d="M3375 8394 c-81 -19 -173 -51 -356 -124 -609 -242 -1108 -661 -1440
-1208 -22 -36 -38 -66 -37 -67 41 -27 180 -53 354 -66 336 -24 583 35 886 214
213 125 447 387 548 611 84 188 151 489 135 607 -8 54 -5 53 -90 33z"/>
<path d="M3820 8211 c0 -77 -42 -290 -81 -411 -105 -324 -301 -610 -579 -844
-268 -226 -606 -368 -969 -407 -136 -14 -348 -7 -471 17 -47 9 -98 18 -115 21
l-30 4 35 -22 c105 -69 334 -277 404 -368 163 -212 263 -408 326 -641 59 -220
65 -268 64 -510 0 -205 -3 -236 -27 -353 -35 -163 -75 -284 -140 -416 -54
-112 -171 -294 -256 -399 l-51 -62 47 24 c97 50 257 107 388 140 389 97 874
38 1233 -149 184 -96 321 -196 472 -345 143 -141 238 -268 317 -424 l37 -71 9
40 c39 175 117 368 209 522 92 152 149 224 293 369 150 151 280 241 494 347
227 112 431 164 686 174 140 5 324 -6 370 -23 11 -3 -35 49 -101 117 -158 161
-179 185 -256 301 -117 174 -220 410 -262 598 -46 208 -49 242 -43 454 5 193
21 321 58 451 57 203 164 417 295 592 59 77 76 113 42 86 -7 -6 -47 -20 -88
-32 -41 -13 -86 -26 -100 -31 -97 -32 -223 -45 -435 -45 -240 0 -315 10 -513
67 -569 165 -1077 653 -1212 1166 -18 67 -36 122 -41 122 -5 0 -9 -27 -9 -59z"/>
<path d="M6631 6901 c-229 -232 -372 -518 -416 -831 -46 -334 14 -655 177
-933 117 -201 258 -350 452 -478 49 -32 93 -59 97 -59 8 0 13 14 47 135 43
152 79 352 89 483 3 50 9 92 12 92 4 0 48 -62 98 -137 787 -1188 1006 -1519
1010 -1530 3 -7 8 -13 12 -13 4 0 41 140 83 311 l77 312 -134 161 c-73 88
-239 289 -369 445 -130 157 -234 287 -232 289 4 4 62 -35 428 -288 293 -201
373 -255 382 -255 5 0 15 19 22 43 11 40 8 62 -51 335 -35 161 -69 317 -77
347 l-13 55 -297 85 c-163 47 -300 88 -303 92 -8 8 -3 9 135 33 52 9 163 28
245 43 l150 27 -1 43 c0 24 -9 85 -19 136 l-18 93 -75 7 c-41 3 -99 6 -129 6
-29 0 -53 3 -53 8 1 4 46 39 101 77 56 39 103 73 105 77 3 4 -6 63 -20 130
-75 359 -86 412 -91 417 -6 6 -8 4 -87 -90 -66 -79 -249 -296 -548 -648 -96
-114 -206 -244 -244 -289 -38 -45 -73 -82 -78 -82 -4 0 -8 24 -8 54 0 103 -35
392 -60 501 -5 22 -19 78 -30 125 -19 85 -74 253 -125 384 -33 88 -161 356
-170 356 -3 0 -37 -31 -74 -69z"/>
<path d="M10 6146 c0 -207 3 -276 13 -283 6 -5 60 -32 119 -59 60 -27 108 -52
108 -55 0 -6 -25 -13 -193 -50 l-57 -12 0 -143 0 -143 288 5 287 6 -287 -143
-288 -143 0 -392 c0 -278 3 -395 11 -400 7 -4 152 134 355 337 189 189 345
341 348 339 2 -3 -34 -73 -81 -155 -139 -244 -394 -695 -435 -769 -21 -38 -38
-74 -38 -81 0 -7 53 -126 118 -266 65 -140 124 -269 131 -286 16 -40 28 -42
42 -5 10 28 89 217 301 722 66 157 160 382 210 500 94 224 113 272 128 305 5
11 20 47 34 80 13 32 28 61 33 62 5 2 17 -43 26 -99 42 -269 112 -498 236
-773 50 -111 133 -255 146 -255 22 0 139 133 216 246 113 165 190 341 235 539
26 116 27 487 1 595 -101 416 -313 717 -660 935 -49 30 -91 55 -95 55 -8 0
-55 -191 -77 -316 -25 -136 -45 -315 -45 -406 0 -56 -4 -88 -11 -88 -12 0 -70
45 -677 533 -232 185 -426 337 -432 337 -7 0 -10 -91 -10 -274z"/>
<path d="M6050 4089 c-344 -55 -555 -147 -788 -342 -264 -222 -438 -541 -492
-901 -13 -86 -18 -231 -9 -240 13 -14 305 75 464 141 557 233 953 538 1288
993 71 95 164 239 169 261 5 18 -135 58 -279 79 -140 21 -260 24 -353 9z"/>
<path d="M2650 3669 c-110 -10 -159 -20 -289 -61 -100 -32 -243 -98 -324 -150
l-48 -31 23 -24 c33 -36 272 -241 343 -295 140 -106 368 -240 540 -317 338
-150 667 -227 1093 -253 120 -7 196 -8 201 -2 14 13 -52 221 -105 333 -213
452 -663 754 -1191 800 -67 6 -127 10 -135 10 -7 -1 -56 -5 -108 -10z"/>
<path d="M2427 2192 c-12 -13 -17 -37 -17 -83 0 -79 7 -91 51 -87 l34 3 1 83
c0 69 -3 85 -17 93 -25 13 -34 11 -52 -9z"/>
<path d="M3428 2188 c-8 -15 -13 -81 -15 -188 -2 -91 -8 -317 -14 -503 -11
-362 -10 -367 37 -367 36 0 43 27 43 163 0 72 4 135 11 146 17 32 67 54 106
46 50 -9 96 -61 153 -173 75 -144 152 -208 205 -169 19 14 18 16 -18 47 -20
18 -69 86 -107 151 -73 123 -114 169 -173 190 -20 7 -36 16 -36 19 0 9 66 70
150 137 141 114 172 163 102 163 -38 0 -81 -33 -227 -175 -66 -64 -128 -121
-139 -127 -17 -9 -18 1 -11 317 6 273 5 329 -6 336 -24 15 -48 10 -61 -13z"/>
<path d="M1685 2154 c-19 -14 -20 -27 -20 -515 0 -426 2 -501 15 -509 26 -16
114 -23 320 -23 251 0 327 17 283 65 -15 16 -38 18 -264 15 -136 -1 -251 2
-256 6 -4 5 -7 220 -5 479 2 340 -1 474 -9 484 -15 18 -39 17 -64 -2z"/>
<path d="M4134 2156 c-20 -14 -21 -27 -27 -336 -4 -177 -4 -404 -1 -505 l7
-184 49 -12 c67 -16 469 -16 526 0 49 14 64 37 37 57 -15 11 -70 13 -261 11
-133 -1 -246 2 -251 6 -4 5 -9 218 -10 475 -1 256 -4 474 -6 484 -6 22 -35 23
-63 4z"/>
<path d="M5061 1849 c-144 -42 -276 -387 -231 -604 16 -78 60 -125 116 -125
98 0 163 44 234 156 22 35 45 64 50 64 6 0 10 -15 10 -32 0 -48 26 -137 46
-159 21 -23 110 -27 139 -5 29 21 12 49 -25 41 -44 -10 -66 1 -85 42 -15 31
-18 70 -19 248 -2 175 -5 219 -20 262 -23 63 -61 102 -112 114 -47 10 -59 10
-103 -2z m104 -102 c76 -76 62 -254 -36 -438 -43 -81 -88 -119 -139 -119 -35
0 -43 5 -60 33 -41 66 -16 310 46 447 50 112 124 142 189 77z"/>
<path d="M6403 1849 c-47 -14 -113 -85 -154 -164 -105 -202 -114 -482 -17
-549 30 -21 104 -20 153 3 46 21 110 87 149 154 16 26 31 47 36 47 4 0 11 -21
15 -47 18 -133 40 -163 113 -163 52 0 88 18 80 41 -3 9 -20 14 -48 14 -35 0
-46 5 -64 28 -20 27 -21 44 -26 260 -5 227 -6 233 -32 287 -15 31 -39 62 -55
72 -36 21 -109 30 -150 17z m102 -102 c54 -54 65 -121 40 -239 -52 -246 -195
-392 -273 -278 -23 33 -24 41 -18 135 17 314 137 496 251 382z"/>
<path d="M2975 1823 c-44 -23 -74 -53 -96 -94 -25 -50 -56 -163 -70 -260 -6
-44 -15 -82 -20 -85 -5 -3 -9 75 -9 178 0 101 -3 200 -6 221 -6 34 -9 37 -41
37 -21 0 -36 -6 -39 -15 -9 -22 13 -496 27 -587 l11 -78 34 0 c24 0 38 7 48
23 18 27 41 131 62 277 19 138 39 221 65 273 30 60 48 77 81 77 46 0 58 -44
69 -249 11 -227 16 -265 41 -324 29 -67 88 -96 133 -63 18 13 18 14 -3 25 -23
12 -48 53 -64 105 -5 17 -13 119 -17 226 -7 170 -11 202 -31 248 -34 78 -102
104 -175 65z"/>
<path d="M5790 1829 c-35 -14 -78 -57 -100 -99 -24 -48 -56 -160 -70 -250 -21
-128 -29 -114 -30 50 -1 184 -9 283 -22 291 -6 4 -22 3 -37 -1 l-26 -7 2 -206
c3 -221 24 -456 44 -467 12 -8 48 -2 65 12 18 14 42 112 69 286 37 239 82 352
140 352 23 0 47 -22 59 -55 4 -11 12 -110 17 -220 12 -260 33 -338 99 -365 30
-12 80 -7 80 9 0 5 -13 23 -29 40 -41 44 -51 93 -61 301 -9 203 -13 227 -43
281 -30 55 -91 74 -157 48z"/>
<path d="M2429 1788 c-13 -37 -26 -542 -15 -604 9 -45 30 -53 62 -24 l24 23 0
319 0 318 -29 0 c-24 0 -31 -6 -42 -32z"/>
<path d="M1846 832 c-10 -16 -26 -137 -26 -199 0 -66 -4 -72 -36 -48 -10 8
-36 15 -58 15 -83 0 -142 -111 -134 -255 4 -94 24 -120 83 -112 30 4 49 16 76
44 20 22 38 45 41 53 8 26 25 0 32 -50 6 -41 10 -51 24 -48 10 2 16 12 14 23
-11 91 -13 291 -2 400 17 177 17 177 3 182 -6 2 -14 0 -17 -5z m-61 -284 c26
-20 27 -25 22 -78 -2 -31 -15 -79 -27 -108 -24 -57 -82 -115 -108 -110 -28 5
-46 58 -45 129 2 146 80 228 158 167z"/>
<path d="M6840 825 c-6 -7 -15 -66 -20 -130 -4 -64 -10 -118 -13 -121 -3 -4
-16 1 -29 10 -31 22 -90 20 -120 -4 -75 -58 -102 -275 -42 -335 35 -34 106 -8
151 57 14 21 29 38 34 38 5 0 11 -23 15 -51 6 -45 25 -72 40 -56 3 2 0 52 -7
110 -11 100 -4 275 18 450 6 48 -4 60 -27 32z m-60 -275 c43 -43 12 -195 -54
-265 -38 -40 -55 -43 -82 -14 -29 32 -27 178 4 236 12 23 30 47 39 52 29 17
71 13 93 -9z"/>
<path d="M7553 828 c-12 -14 -19 -61 -28 -178 -4 -41 -8 -76 -10 -78 -2 -2
-14 3 -27 12 -12 9 -40 16 -62 16 -31 0 -45 -7 -72 -35 -66 -70 -86 -263 -33
-316 36 -36 77 -25 137 37 30 30 55 54 57 52 1 -2 6 -25 11 -53 7 -36 14 -51
27 -53 17 -3 17 2 10 60 -11 84 -8 310 6 432 11 97 6 131 -16 104z m-62 -279
c63 -63 -42 -319 -120 -294 -62 19 -50 243 16 294 33 27 77 27 104 0z"/>
<path d="M1283 774 c-9 -23 10 -69 27 -69 17 0 24 27 16 61 -7 27 -33 32 -43
8z"/>
<path d="M1454 776 c-10 -27 1 -71 19 -74 14 -3 17 4 17 42 0 35 -4 46 -15 46
-9 0 -18 -6 -21 -14z"/>
<path d="M6457 783 c-4 -3 -7 -24 -7 -45 0 -32 3 -39 18 -36 13 2 17 14 19 46
1 39 -11 54 -30 35z"/>
<path d="M5710 755 c-6 -14 -10 -54 -10 -89 0 -67 -10 -86 -48 -86 -33 0 -22
-24 14 -30 29 -5 29 -6 36 -90 11 -156 44 -223 106 -223 34 0 82 20 82 35 0
11 -27 10 -51 -3 -56 -30 -97 40 -99 171 -3 131 -8 120 60 120 33 0 60 4 60 8
0 20 -28 32 -72 32 l-48 0 0 84 c0 87 -13 117 -30 71z"/>
<path d="M512 749 c-14 -5 -20 -13 -16 -20 5 -8 36 -10 106 -6 54 3 105 4 113
1 13 -5 15 -45 15 -260 0 -140 4 -254 8 -254 28 0 32 30 32 259 0 130 4 242 9
250 7 10 28 12 97 7 88 -7 123 1 110 23 -9 14 -440 14 -474 0z"/>
<path d="M4295 742 c-109 -36 -195 -164 -197 -296 -2 -116 42 -180 144 -211
61 -18 99 -19 170 -4 69 15 115 39 157 83 31 31 32 36 15 36 -11 0 -31 -12
-45 -26 -81 -89 -263 -99 -347 -21 -41 38 -56 78 -56 147 1 146 116 280 242
280 37 0 87 -25 105 -54 10 -14 26 -26 37 -26 25 0 25 5 0 45 -38 61 -127 80
-225 47z"/>
<path d="M4674 600 c-10 -10 6 -274 21 -340 6 -26 34 -43 36 -22 0 4 2 42 4
84 6 134 51 248 98 248 12 0 31 -12 43 -27 17 -21 26 -25 34 -17 16 16 -35 74
-66 74 -34 0 -80 -47 -102 -103 -10 -27 -22 -49 -28 -50 -5 -1 -10 32 -12 73
-3 77 -10 98 -28 80z"/>
<path d="M5425 595 c-118 -59 -159 -375 -49 -375 38 0 70 20 105 66 18 24 36
44 40 44 4 0 10 -15 13 -34 10 -53 36 -79 69 -71 33 9 36 25 3 25 -43 0 -50
23 -52 155 -2 135 -15 178 -60 195 -32 13 -33 12 -69 -5z m71 -46 c27 -31 25
-128 -5 -194 -41 -91 -105 -133 -131 -86 -25 48 -1 214 41 272 25 35 67 39 95
8z"/>
<path d="M7064 600 c-32 -13 -81 -78 -99 -129 -26 -76 -29 -170 -8 -211 33
-64 106 -48 164 36 33 48 49 47 49 -4 0 -42 18 -62 55 -62 19 0 35 5 35 10 0
6 -11 10 -24 10 -41 0 -50 23 -48 128 2 108 -11 183 -36 205 -23 20 -62 28
-88 17z m65 -56 c41 -52 14 -197 -50 -265 -32 -34 -59 -37 -84 -9 -31 34 -10
194 35 268 26 42 69 44 99 6z"/>
<path d="M1035 581 c-69 -43 -115 -126 -118 -215 -2 -59 19 -99 64 -124 57
-31 194 6 228 60 18 30 -19 22 -59 -12 -28 -25 -43 -30 -86 -30 -60 0 -90 19
-103 65 -12 45 -4 55 42 55 91 1 177 68 177 140 0 70 -78 103 -145 61z m83
-17 c37 -26 30 -78 -17 -125 -34 -34 -45 -39 -84 -39 -25 0 -49 5 -52 11 -12
18 54 138 83 154 35 18 43 18 70 -1z"/>
<path d="M2033 580 c-98 -59 -111 -289 -20 -336 60 -32 145 -15 194 38 78 84
47 249 -59 304 -37 19 -77 17 -115 -6z m107 -20 c51 -27 87 -164 60 -230 -29
-69 -114 -102 -167 -65 -59 41 -53 216 8 281 24 25 66 31 99 14z"/>
<path d="M2385 577 c-31 -17 -42 -31 -49 -60 -15 -58 11 -85 114 -118 109 -36
135 -69 90 -117 -28 -30 -107 -30 -160 -1 -24 14 -45 19 -57 15 -17 -7 -16 -9
5 -26 66 -54 205 -51 252 4 20 25 18 81 -5 106 -11 12 -52 31 -92 43 -41 12
-83 29 -93 40 -46 42 -3 107 70 107 37 0 60 -17 73 -52 7 -19 32 -24 41 -9 11
18 -13 60 -43 76 -42 21 -99 18 -146 -8z"/>
<path d="M2922 580 c-77 -47 -116 -234 -65 -306 29 -40 87 -57 140 -41 38 12
113 75 113 95 0 24 -25 11 -66 -33 -34 -38 -47 -45 -78 -45 -28 0 -45 7 -68
31 -30 29 -30 32 -26 103 11 165 107 252 167 150 20 -33 40 -41 48 -18 2 5
-11 26 -28 47 -25 30 -37 37 -67 37 -20 0 -52 -9 -70 -20z"/>
<path d="M3260 577 c-52 -34 -73 -79 -78 -166 -6 -104 11 -145 73 -172 43 -19
49 -19 98 -5 59 17 89 43 112 98 39 94 -6 217 -92 254 -46 20 -75 17 -113 -9z
m119 -28 c103 -96 63 -299 -59 -299 -42 0 -67 15 -85 50 -30 58 -13 198 31
245 30 32 81 34 113 4z"/>
<path d="M3709 585 c-31 -17 -55 -63 -69 -136 -17 -81 -19 -87 -30 -69 -5 8
-9 57 -9 108 1 97 -2 109 -22 97 -9 -6 -10 -47 -6 -159 6 -164 12 -196 33
-196 20 0 29 29 48 149 19 118 40 177 68 192 39 21 50 -8 58 -143 9 -133 18
-171 48 -187 27 -14 34 -3 15 26 -11 17 -18 62 -23 150 -7 101 -12 131 -27
152 -24 31 -49 36 -84 16z"/>
<path d="M5068 580 c-72 -38 -117 -123 -118 -221 0 -67 22 -101 77 -120 70
-23 186 10 213 62 16 29 -11 24 -55 -11 -30 -24 -47 -30 -87 -30 -41 0 -54 5
-79 29 -19 19 -29 40 -29 59 0 29 1 30 58 34 136 10 229 153 132 203 -38 20
-67 18 -112 -5z m77 -12 c25 -11 30 -23 27 -63 -5 -58 -64 -105 -131 -105 -35
0 -41 3 -41 20 0 31 46 115 76 139 31 24 35 25 69 9z"/>
<path d="M6067 592 c-8 -12 57 -192 102 -280 53 -105 69 -106 91 -7 21 90 55
180 86 227 41 63 26 82 -21 26 -32 -38 -72 -125 -87 -190 -6 -27 -17 -48 -23
-48 -14 0 -39 55 -81 175 -15 44 -32 86 -37 93 -11 14 -24 16 -30 4z"/>
<path d="M1304 579 c-4 -7 -8 -105 -8 -218 -1 -185 -3 -210 -21 -246 -17 -35
-25 -40 -57 -43 -42 -4 -54 -31 -15 -33 70 -4 101 21 124 101 13 46 15 86 9
245 -6 178 -13 224 -32 194z"/>
<path d="M5963 578 c-4 -7 -10 -86 -11 -175 -3 -139 -2 -163 11 -163 24 0 27
23 27 185 0 144 -7 183 -27 153z"/>
<path d="M6460 566 c-5 -15 -10 -95 -10 -177 0 -138 1 -150 18 -147 15 3 17
20 20 167 3 165 -6 214 -28 157z"/>
<path d="M1456 528 c-9 -78 -7 -261 3 -277 23 -36 31 5 31 165 0 132 -3 164
-14 164 -9 0 -15 -18 -20 -52z"/>
</g>
</svg>
