<?xml version="1.0" standalone="no"?>
<!DOCTYPE svg PUBLIC "-//W3C//DTD SVG 20010904//EN"
 "http://www.w3.org/TR/2001/REC-SVG-20010904/DTD/svg10.dtd">
<svg version="1.0" xmlns="http://www.w3.org/2000/svg"
 width="509.000000pt" height="492.000000pt" viewBox="0 0 509.000000 492.000000"
 preserveAspectRatio="xMidYMid meet">

<g transform="translate(0.000000,492.000000) scale(0.100000,-0.100000)"
fill="#000000" stroke="none">
<path d="M2384 4768 c10 -72 48 -168 100 -248 130 -201 332 -331 576 -370 85
-14 218 -7 305 15 70 19 203 73 211 87 9 15 -117 138 -223 219 -50 38 -94 69
-98 69 -3 0 -21 11 -38 24 -18 13 -68 42 -112 64 -201 103 -418 162 -679 185
l-48 5 6 -50z"/>
<path d="M1840 4741 c-402 -137 -714 -375 -924 -704 l-37 -57 28 -11 c87 -33
333 -36 448 -5 114 31 260 112 346 193 63 59 138 160 179 242 40 80 80 237 80
314 0 69 0 69 -120 28z"/>
<path d="M2170 4650 c0 -64 -38 -217 -74 -302 -107 -246 -323 -460 -562 -557
-147 -59 -227 -75 -384 -75 -80 1 -165 6 -190 12 -40 10 -43 9 -25 -4 79 -58
184 -159 223 -214 82 -113 89 -124 119 -195 67 -154 93 -275 93 -429 0 -237
-61 -433 -190 -611 -20 -27 -39 -55 -43 -61 -4 -7 46 5 111 27 163 53 271 66
416 51 122 -13 254 -47 345 -88 169 -78 367 -251 451 -396 24 -43 47 -74 51
-70 3 4 13 36 23 72 35 129 128 286 238 401 110 115 239 201 386 258 126 48
209 62 366 62 l138 -1 -62 67 c-127 136 -199 254 -251 415 -43 134 -53 205
-46 363 9 207 52 344 161 515 23 36 45 70 49 77 5 7 -8 7 -41 -3 -26 -8 -87
-21 -137 -29 -326 -53 -643 50 -893 289 -123 118 -226 287 -252 412 -6 30 -13
54 -16 54 -2 0 -4 -18 -4 -40z"/>
<path d="M3788 3940 c-36 -22 -141 -167 -182 -253 -61 -128 -80 -215 -80 -362
1 -188 51 -339 163 -486 71 -95 234 -231 252 -211 11 12 57 213 64 277 12 118
18 151 24 130 3 -11 140 -222 304 -468 163 -247 302 -458 308 -469 6 -11 14
-16 19 -12 7 9 80 301 80 324 0 7 -17 33 -38 59 -21 25 -116 140 -211 254 -95
115 -171 211 -168 213 2 3 106 -65 230 -151 124 -85 230 -155 235 -155 22 0
17 48 -23 229 -23 105 -44 193 -47 196 -2 3 -78 26 -169 51 -90 25 -168 50
-173 54 -10 10 -5 11 169 41 72 11 133 23 136 25 6 3 -17 134 -24 140 -1 1
-33 4 -71 7 -37 3 -70 8 -73 10 -2 3 23 24 56 47 34 24 61 49 61 57 0 7 -11
66 -25 131 -14 64 -28 127 -31 140 -4 19 -40 -20 -227 -240 -122 -145 -246
-291 -275 -326 l-52 -63 0 48 c0 129 -41 348 -94 499 -32 91 -111 274 -118
274 -2 0 -11 -5 -20 -10z"/>
<path d="M10 3490 l0 -151 70 -32 c38 -18 69 -35 70 -39 0 -8 -16 -13 -93 -28
l-57 -11 0 -74 0 -75 168 -2 167 -3 -167 -83 -168 -83 0 -219 c0 -121 3 -220
7 -220 4 0 100 91 212 203 112 111 201 195 198 187 -2 -8 -77 -142 -165 -298
l-159 -283 76 -165 76 -164 13 32 c23 56 240 574 322 768 43 102 80 178 83
170 2 -8 12 -58 22 -110 10 -52 28 -130 41 -173 40 -134 142 -357 164 -357 11
0 81 77 116 130 147 215 188 487 108 726 -46 139 -103 231 -205 333 -51 51
-186 144 -192 133 -3 -4 -14 -47 -25 -97 -25 -108 -42 -234 -43 -330 -1 -38
-4 -60 -7 -48 -6 17 -610 513 -627 513 -3 0 -5 -68 -5 -150z"/>
<path d="M3435 2323 c-210 -29 -427 -148 -550 -301 -93 -116 -164 -296 -180
-461 l-7 -73 43 7 c109 18 379 136 519 225 90 58 234 177 299 247 60 63 193
238 216 284 l15 28 -52 16 c-101 28 -219 39 -303 28z"/>
<path d="M1468 2080 c-25 -4 -73 -16 -105 -25 -66 -19 -223 -93 -223 -105 0
-10 113 -110 200 -177 74 -57 153 -105 257 -157 204 -102 474 -166 700 -166
l81 0 -20 68 c-37 125 -94 217 -198 322 -78 79 -111 104 -186 143 -49 25 -129
57 -177 71 -95 28 -252 40 -329 26z"/>
</g>
</svg>
